{"asset":{"generator":"3D Builder","version":"2.0"},"scene":0,"scenes":[{"nodes":[0]}],"nodes":[{"mesh":0,"matrix":[0.039370074868202209,0,0,0,0,0.039370071142911911,4.4408920985006262E-16,0,0,-9.31321242347849E-10,0.039370078593492508,0,0,0.40071585774421692,0.40072086453437805,1]}],"meshes":[{"primitives":[{"attributes":{"POSITION":0},"mode":4,"indices":1,"material":0}]}],"materials":[{"name":"_auto_3","pbrMetallicRoughness":{"baseColorFactor":[1,1,1,1],"metallicFactor":0,"roughnessFactor":1},"alphaMode":"OPAQUE"}],"accessors":[{"bufferView":0,"byteOffset":0,"count":51510,"componentType":5126,"type":"VEC3","min":[0,0,-25.69032096862793],"max":[22.097915649414063,5.333824634552002,-0.00012712401803582907]},{"bufferView":1,"byteOffset":0,"count":317670,"componentType":5125,"type":"SCALAR"}],"bufferViews":[{"buffer":0,"byteOffset":0,"byteLength":618120,"byteStride":12,"target":34962},{"buffer":0,"byteOffset":618120,"byteLength":1270680,"target":34963}],"buffers":[{"byteLength":1888800,"uri":"ikarus.bin"}]}