{"asset":{"generator":"3D Builder","version":"2.0"},"scene":0,"scenes":[{"nodes":[0]}],"nodes":[{"mesh":0,"matrix":[0.99999994039535522,0,0,0,0,-1.1920928244535389E-7,-0.99999982118606567,0,0,0.99999982118606567,-1.1920928244535389E-7,0,0,0,0,1]}],"meshes":[{"primitives":[{"attributes":{"POSITION":0},"mode":4,"indices":1,"material":0}]}],"materials":[{"name":"Default","pbrMetallicRoughness":{"baseColorFactor":[0.50288659334182739,0.50288659334182739,0.50288659334182739,1],"metallicFactor":0,"roughnessFactor":1},"alphaMode":"OPAQUE"}],"accessors":[{"bufferView":0,"byteOffset":0,"count":26372,"componentType":5126,"type":"VEC3","min":[0,0,0],"max":[1.7517832517623901,1.8126541376113892,2.5759873390197754]},{"bufferView":1,"byteOffset":0,"count":160386,"componentType":5125,"type":"SCALAR"}],"bufferViews":[{"buffer":0,"byteOffset":0,"byteLength":316464,"byteStride":12,"target":34962},{"buffer":0,"byteOffset":316464,"byteLength":641544,"target":34963}],"buffers":[{"byteLength":958008,"uri":"starseeker.bin"}]}